<svg xmlns="http://www.w3.org/2000/svg" xmlns:xlink="http://www.w3.org/1999/xlink" width="1000" zoomAndPan="magnify" viewBox="0 0 750 749.999995" height="1000" preserveAspectRatio="xMidYMid meet" version="1.0"><defs><g/><clipPath id="5991a1e401"><path d="M 17.507812 17.109375 L 733.007812 17.109375 L 733.007812 732.609375 L 17.507812 732.609375 Z M 17.507812 17.109375 " clip-rule="nonzero"/></clipPath><clipPath id="89db48356e"><path d="M 225.003906 17.109375 L 525.707031 17.109375 C 580.738281 17.109375 633.515625 38.972656 672.429688 77.882812 C 711.34375 116.796875 733.207031 169.574219 733.207031 224.609375 L 733.207031 525.390625 C 733.207031 580.421875 711.34375 633.199219 672.429688 672.113281 C 633.515625 711.027344 580.738281 732.886719 525.707031 732.886719 L 225.003906 732.886719 C 169.972656 732.886719 117.195312 711.027344 78.28125 672.113281 C 39.367188 633.199219 17.507812 580.421875 17.507812 525.390625 L 17.507812 224.609375 C 17.507812 169.574219 39.367188 116.796875 78.28125 77.882812 C 117.195312 38.972656 169.972656 17.109375 225.003906 17.109375 Z M 225.003906 17.109375 " clip-rule="nonzero"/></clipPath><clipPath id="c75acea6e8"><path d="M 0.0390625 35 L 111 35 L 111 138 L 0.0390625 138 Z M 0.0390625 35 " clip-rule="nonzero"/></clipPath><clipPath id="6460ecdd69"><rect x="0" width="522" y="0" height="191"/></clipPath></defs><g clip-path="url(#5991a1e401)"><g clip-path="url(#89db48356e)"><path stroke-linecap="butt" transform="matrix(0.75, 0, 0, 0.75, 17.506238, 17.107812)" fill="none" stroke-linejoin="miter" d="M 276.663589 0.00208373 L 677.601134 0.00208373 C 750.976143 0.00208373 821.345942 29.153129 873.231365 81.033343 C 925.116787 132.918765 954.267832 203.288565 954.267832 276.668782 L 954.267832 677.710493 C 954.267832 751.085502 925.116787 821.455301 873.231365 873.340724 C 821.345942 925.226146 750.976143 954.371983 677.601134 954.371983 L 276.663589 954.371983 C 203.288581 954.371983 132.918781 925.226146 81.033359 873.340724 C 29.147936 821.455301 0.0020996 751.085502 0.0020996 677.710493 L 0.0020996 276.668782 C 0.0020996 203.288565 29.147936 132.918765 81.033359 81.033343 C 132.918781 29.153129 203.288581 0.00208373 276.663589 0.00208373 Z M 276.663589 0.00208373 " stroke="#000000" stroke-width="140" stroke-opacity="1" stroke-miterlimit="4"/></g></g><g transform="matrix(1, 0, 0, 1, 113, 279)"><g clip-path="url(#6460ecdd69)"><g clip-path="url(#c75acea6e8)"><g fill="#000000" fill-opacity="1"><g transform="translate(4.587216, 137.240869)"><g><path d="M 104.34375 -1.40625 L 105.625 -1.40625 L 105.625 0 L 60.515625 0 L 60.515625 -1.40625 L 61.78125 -1.40625 C 63.851562 -1.40625 65.382812 -2.039062 66.375 -3.3125 C 67.363281 -4.59375 67.859375 -5.796875 67.859375 -6.921875 C 67.859375 -8.054688 67.625 -9.191406 67.15625 -10.328125 L 60.234375 -27.71875 L 27.140625 -27.71875 L 19.796875 -10.328125 C 19.328125 -9.097656 19.09375 -7.941406 19.09375 -6.859375 C 19.09375 -5.773438 19.609375 -4.59375 20.640625 -3.3125 C 21.679688 -2.039062 23.238281 -1.40625 25.3125 -1.40625 L 26.4375 -1.40625 L 26.4375 0 L -3.8125 0 L -3.8125 -1.40625 L -2.546875 -1.40625 C -0.378906 -1.40625 1.785156 -2.066406 3.953125 -3.390625 C 6.117188 -4.710938 7.910156 -6.691406 9.328125 -9.328125 L 42 -83.28125 C 46.425781 -92.613281 48.78125 -98.785156 49.0625 -101.796875 L 50.328125 -101.796875 L 92.328125 -9.609375 C 93.742188 -6.878906 95.535156 -4.828125 97.703125 -3.453125 C 99.867188 -2.085938 102.082031 -1.40625 104.34375 -1.40625 Z M 29.546875 -33.65625 L 57.828125 -33.65625 L 44.109375 -68.4375 Z M 29.546875 -33.65625 "/></g></g></g></g><g fill="#000000" fill-opacity="1"><g transform="translate(89.284018, 137.240869)"><g><path d="M 76.78125 -98.96875 L 107.03125 -98.96875 L 107.03125 -97.5625 L 105.765625 -97.5625 C 103.585938 -97.5625 101.414062 -96.898438 99.25 -95.578125 C 97.082031 -94.253906 95.289062 -92.273438 93.875 -89.640625 L 60.375 -15.6875 C 56.039062 -6.363281 53.726562 -0.191406 53.4375 2.828125 L 52.171875 2.828125 L 9.328125 -89.5 C 7.910156 -92.132812 6.117188 -94.132812 3.953125 -95.5 C 1.785156 -96.875 -0.425781 -97.5625 -2.6875 -97.5625 L -3.8125 -97.5625 L -3.8125 -98.96875 L 41.140625 -98.96875 L 41.140625 -97.5625 L 40.015625 -97.5625 C 37.941406 -97.5625 36.410156 -96.921875 35.421875 -95.640625 C 34.429688 -94.367188 33.9375 -93.164062 33.9375 -92.03125 C 33.9375 -90.90625 34.125 -89.78125 34.5 -88.65625 L 58.53125 -30.25 L 83.421875 -88.65625 C 83.890625 -89.875 84.125 -91.023438 84.125 -92.109375 C 84.125 -93.191406 83.628906 -94.367188 82.640625 -95.640625 C 81.648438 -96.921875 80.117188 -97.5625 78.046875 -97.5625 L 76.78125 -97.5625 Z M 76.78125 -98.96875 "/></g></g></g><g fill="#000000" fill-opacity="1"><g transform="translate(187.979128, 137.240869)"><g><path d="M 21.984375 -87.09375 C 32.023438 -96.332031 45.550781 -100.953125 62.5625 -100.953125 C 79.582031 -100.953125 93.109375 -96.332031 103.140625 -87.09375 C 113.179688 -77.851562 118.203125 -65.316406 118.203125 -49.484375 C 118.203125 -33.648438 113.179688 -21.113281 103.140625 -11.875 C 93.109375 -2.632812 79.582031 1.984375 62.5625 1.984375 C 45.550781 1.984375 32.023438 -2.632812 21.984375 -11.875 C 11.941406 -21.113281 6.921875 -33.648438 6.921875 -49.484375 C 6.921875 -65.316406 11.941406 -77.851562 21.984375 -87.09375 Z M 38.796875 -16.1875 C 44.597656 -8.03125 52.492188 -3.953125 62.484375 -3.953125 C 72.484375 -3.953125 80.40625 -8.03125 86.25 -16.1875 C 92.09375 -24.34375 95.015625 -35.441406 95.015625 -49.484375 C 95.015625 -63.523438 92.09375 -74.625 86.25 -82.78125 C 80.40625 -90.9375 72.484375 -95.015625 62.484375 -95.015625 C 52.492188 -95.015625 44.597656 -90.9375 38.796875 -82.78125 C 33.003906 -74.625 30.109375 -63.523438 30.109375 -49.484375 C 30.109375 -35.441406 33.003906 -24.34375 38.796875 -16.1875 Z M 38.796875 -16.1875 "/></g></g></g><g fill="#000000" fill-opacity="1"><g transform="translate(313.681078, 137.240869)"><g><path d="M 158.359375 20.5 C 171.648438 20.5 182.535156 17.0625 191.015625 10.1875 L 191.859375 10.75 C 191.390625 18.382812 187.8125 24.882812 181.125 30.25 C 173.582031 36.382812 164.222656 39.453125 153.046875 39.453125 C 141.878906 39.453125 129.789062 36.289062 116.78125 29.96875 C 110.9375 27.050781 101.273438 21.253906 87.796875 12.578125 C 84.023438 10.035156 79.734375 7.726562 74.921875 5.65625 C 70.117188 3.582031 65.644531 2.359375 61.5 1.984375 C 44.726562 1.796875 31.414062 -2.890625 21.5625 -12.078125 C 11.707031 -21.273438 6.78125 -33.765625 6.78125 -49.546875 C 6.78125 -65.335938 11.800781 -77.851562 21.84375 -87.09375 C 31.882812 -96.332031 45.410156 -100.953125 62.421875 -100.953125 C 79.429688 -100.953125 92.929688 -96.332031 102.921875 -87.09375 C 112.921875 -77.851562 117.921875 -65.316406 117.921875 -49.484375 C 117.921875 -37.046875 114.738281 -26.5625 108.375 -18.03125 C 102.007812 -9.5 93.21875 -3.675781 82 -0.5625 C 89.539062 0.945312 96.585938 2.925781 103.140625 5.375 C 109.691406 7.820312 117.164062 10.648438 125.5625 13.859375 C 136.863281 18.285156 147.796875 20.5 158.359375 20.5 Z M 29.828125 -49.484375 C 29.828125 -40.242188 31.144531 -32.179688 33.78125 -25.296875 C 36.425781 -18.421875 40.195312 -13.144531 45.09375 -9.46875 C 50 -5.789062 55.753906 -3.953125 62.359375 -3.953125 C 72.347656 -3.953125 80.265625 -8.03125 86.109375 -16.1875 C 91.953125 -24.34375 94.875 -35.441406 94.875 -49.484375 C 94.875 -63.523438 91.953125 -74.625 86.109375 -82.78125 C 80.265625 -90.9375 72.34375 -95.015625 62.34375 -95.015625 C 52.351562 -95.015625 44.4375 -90.9375 38.59375 -82.78125 C 32.75 -74.625 29.828125 -63.523438 29.828125 -49.484375 Z M 29.828125 -49.484375 "/></g></g></g><g fill="#000000" fill-opacity="1"><g transform="translate(438.393253, 137.240869)"><g><path d="M 7.0625 -13.15625 C 7.0625 -19.9375 8.523438 -25.734375 11.453125 -30.546875 L 12.71875 -30.546875 C 12.625 -29.785156 12.578125 -29.03125 12.578125 -28.28125 C 12.578125 -21.769531 14.910156 -16.085938 19.578125 -11.234375 C 24.242188 -6.378906 30.628906 -3.953125 38.734375 -3.953125 C 45.054688 -3.953125 49.984375 -5.460938 53.515625 -8.484375 C 57.046875 -11.503906 58.8125 -15.320312 58.8125 -19.9375 C 58.8125 -22.664062 57.941406 -25.113281 56.203125 -27.28125 C 54.460938 -29.457031 51.5625 -31.863281 47.5 -34.5 L 22.90625 -50.765625 C 13.757812 -56.890625 9.1875 -64.425781 9.1875 -73.375 C 9.1875 -74.320312 9.28125 -75.265625 9.46875 -76.203125 C 10.039062 -83.648438 12.941406 -89.632812 18.171875 -94.15625 C 23.398438 -98.6875 30.398438 -100.953125 39.171875 -100.953125 C 44.347656 -100.953125 50.753906 -100.476562 58.390625 -99.53125 L 67.296875 -99.53125 L 65.46875 -78.75 L 64.046875 -78.75 C 64.046875 -83.65625 62.226562 -87.59375 58.59375 -90.5625 C 54.96875 -93.53125 50.140625 -95.015625 44.109375 -95.015625 C 36.753906 -95.015625 31.429688 -92.753906 28.140625 -88.234375 C 26.441406 -86.054688 25.59375 -83.882812 25.59375 -81.71875 C 25.59375 -79.550781 26.015625 -77.710938 26.859375 -76.203125 C 28.179688 -73.753906 31.054688 -71.117188 35.484375 -68.296875 L 62.5 -50.765625 C 70.976562 -45.203125 75.21875 -37.941406 75.21875 -28.984375 C 75.21875 -18.992188 71.800781 -11.332031 64.96875 -6 C 58.132812 -0.675781 49.0625 1.984375 37.75 1.984375 C 31.34375 1.984375 25.425781 1.207031 20 -0.34375 C 14.582031 -1.90625 10.601562 -4.003906 8.0625 -6.640625 C 7.394531 -8.429688 7.0625 -10.601562 7.0625 -13.15625 Z M 7.0625 -13.15625 "/></g></g></g></g></g></svg>