<svg xmlns="http://www.w3.org/2000/svg" xmlns:xlink="http://www.w3.org/1999/xlink" width="1000" zoomAndPan="magnify" viewBox="0 0 750 749.999995" height="1000" preserveAspectRatio="xMidYMid meet" version="1.0"><defs><clipPath id="234400711e"><path d="M 17.507812 17.503906 L 733 17.503906 L 733 733 L 17.507812 733 Z M 17.507812 17.503906 " clip-rule="nonzero"/></clipPath><clipPath id="32fa548fac"><path d="M 225.003906 17.503906 L 525.34375 17.503906 C 639.941406 17.503906 732.84375 110.402344 732.84375 225 L 732.84375 525.417969 C 732.84375 640.015625 639.941406 732.914062 525.34375 732.914062 L 225.003906 732.914062 C 110.40625 732.914062 17.507812 640.015625 17.507812 525.417969 L 17.507812 225 C 17.507812 110.402344 110.40625 17.503906 225.003906 17.503906 Z M 225.003906 17.503906 " clip-rule="nonzero"/></clipPath><linearGradient x1="66.473" gradientTransform="matrix(7.174243, 0, 0, 7.174243, -0.000000360765, 0.00291927)" y1="0.0000062131" x2="66.473" gradientUnits="userSpaceOnUse" y2="132.959641" id="36a6f7ecb7"><stop stop-opacity="1" stop-color="rgb(52.549744%, 10.5896%, 23.919678%)" offset="0"/><stop stop-opacity="1" stop-color="rgb(52.450562%, 10.505676%, 24.093628%)" offset="0.015625"/><stop stop-opacity="1" stop-color="rgb(52.255249%, 10.340881%, 24.443054%)" offset="0.03125"/><stop stop-opacity="1" stop-color="rgb(52.058411%, 10.174561%, 24.790955%)" offset="0.046875"/><stop stop-opacity="1" stop-color="rgb(51.863098%, 10.009766%, 25.140381%)" offset="0.0625"/><stop stop-opacity="1" stop-color="rgb(51.66626%, 9.844971%, 25.489807%)" offset="0.078125"/><stop stop-opacity="1" stop-color="rgb(51.470947%, 9.67865%, 25.839233%)" offset="0.09375"/><stop stop-opacity="1" stop-color="rgb(51.274109%, 9.513855%, 26.18866%)" offset="0.109375"/><stop stop-opacity="1" stop-color="rgb(51.078796%, 9.347534%, 26.538086%)" offset="0.125"/><stop stop-opacity="1" stop-color="rgb(50.881958%, 9.182739%, 26.887512%)" offset="0.140625"/><stop stop-opacity="1" stop-color="rgb(50.686646%, 9.016418%, 27.235413%)" offset="0.15625"/><stop stop-opacity="1" stop-color="rgb(50.489807%, 8.851624%, 27.584839%)" offset="0.171875"/><stop stop-opacity="1" stop-color="rgb(50.294495%, 8.685303%, 27.934265%)" offset="0.1875"/><stop stop-opacity="1" stop-color="rgb(50.097656%, 8.520508%, 28.283691%)" offset="0.203125"/><stop stop-opacity="1" stop-color="rgb(49.902344%, 8.355713%, 28.633118%)" offset="0.21875"/><stop stop-opacity="1" stop-color="rgb(49.705505%, 8.189392%, 28.982544%)" offset="0.234375"/><stop stop-opacity="1" stop-color="rgb(49.508667%, 8.024597%, 29.33197%)" offset="0.25"/><stop stop-opacity="1" stop-color="rgb(49.313354%, 7.858276%, 29.681396%)" offset="0.265625"/><stop stop-opacity="1" stop-color="rgb(49.116516%, 7.693481%, 30.029297%)" offset="0.28125"/><stop stop-opacity="1" stop-color="rgb(48.921204%, 7.527161%, 30.378723%)" offset="0.296875"/><stop stop-opacity="1" stop-color="rgb(48.724365%, 7.362366%, 30.728149%)" offset="0.3125"/><stop stop-opacity="1" stop-color="rgb(48.529053%, 7.196045%, 31.077576%)" offset="0.328125"/><stop stop-opacity="1" stop-color="rgb(48.332214%, 7.03125%, 31.427002%)" offset="0.34375"/><stop stop-opacity="1" stop-color="rgb(48.136902%, 6.866455%, 31.776428%)" offset="0.359375"/><stop stop-opacity="1" stop-color="rgb(47.940063%, 6.700134%, 32.125854%)" offset="0.375"/><stop stop-opacity="1" stop-color="rgb(47.744751%, 6.535339%, 32.473755%)" offset="0.390625"/><stop stop-opacity="1" stop-color="rgb(47.547913%, 6.369019%, 32.823181%)" offset="0.40625"/><stop stop-opacity="1" stop-color="rgb(47.3526%, 6.204224%, 33.172607%)" offset="0.421875"/><stop stop-opacity="1" stop-color="rgb(47.155762%, 6.037903%, 33.522034%)" offset="0.4375"/><stop stop-opacity="1" stop-color="rgb(46.960449%, 5.873108%, 33.87146%)" offset="0.453125"/><stop stop-opacity="1" stop-color="rgb(46.763611%, 5.708313%, 34.220886%)" offset="0.46875"/><stop stop-opacity="1" stop-color="rgb(46.568298%, 5.541992%, 34.570312%)" offset="0.484375"/><stop stop-opacity="1" stop-color="rgb(46.37146%, 5.377197%, 34.918213%)" offset="0.5"/><stop stop-opacity="1" stop-color="rgb(46.176147%, 5.210876%, 35.267639%)" offset="0.515625"/><stop stop-opacity="1" stop-color="rgb(45.979309%, 5.046082%, 35.617065%)" offset="0.53125"/><stop stop-opacity="1" stop-color="rgb(45.783997%, 4.879761%, 35.966492%)" offset="0.546875"/><stop stop-opacity="1" stop-color="rgb(45.587158%, 4.714966%, 36.315918%)" offset="0.5625"/><stop stop-opacity="1" stop-color="rgb(45.391846%, 4.548645%, 36.665344%)" offset="0.578125"/><stop stop-opacity="1" stop-color="rgb(45.195007%, 4.38385%, 37.014771%)" offset="0.59375"/><stop stop-opacity="1" stop-color="rgb(44.999695%, 4.219055%, 37.364197%)" offset="0.609375"/><stop stop-opacity="1" stop-color="rgb(44.802856%, 4.052734%, 37.712097%)" offset="0.625"/><stop stop-opacity="1" stop-color="rgb(44.607544%, 3.887939%, 38.061523%)" offset="0.640625"/><stop stop-opacity="1" stop-color="rgb(44.410706%, 3.721619%, 38.41095%)" offset="0.65625"/><stop stop-opacity="1" stop-color="rgb(44.215393%, 3.556824%, 38.760376%)" offset="0.671875"/><stop stop-opacity="1" stop-color="rgb(44.018555%, 3.390503%, 39.109802%)" offset="0.6875"/><stop stop-opacity="1" stop-color="rgb(43.823242%, 3.225708%, 39.459229%)" offset="0.703125"/><stop stop-opacity="1" stop-color="rgb(43.626404%, 3.059387%, 39.808655%)" offset="0.71875"/><stop stop-opacity="1" stop-color="rgb(43.431091%, 2.894592%, 40.156555%)" offset="0.734375"/><stop stop-opacity="1" stop-color="rgb(43.234253%, 2.729797%, 40.505981%)" offset="0.75"/><stop stop-opacity="1" stop-color="rgb(43.03894%, 2.563477%, 40.855408%)" offset="0.765625"/><stop stop-opacity="1" stop-color="rgb(42.842102%, 2.398682%, 41.204834%)" offset="0.78125"/><stop stop-opacity="1" stop-color="rgb(42.64679%, 2.232361%, 41.55426%)" offset="0.796875"/><stop stop-opacity="1" stop-color="rgb(42.449951%, 2.067566%, 41.903687%)" offset="0.8125"/><stop stop-opacity="1" stop-color="rgb(42.254639%, 1.901245%, 42.253113%)" offset="0.828125"/><stop stop-opacity="1" stop-color="rgb(42.0578%, 1.73645%, 42.601013%)" offset="0.84375"/><stop stop-opacity="1" stop-color="rgb(41.862488%, 1.570129%, 42.950439%)" offset="0.859375"/><stop stop-opacity="1" stop-color="rgb(41.665649%, 1.405334%, 43.299866%)" offset="0.875"/><stop stop-opacity="1" stop-color="rgb(41.470337%, 1.24054%, 43.649292%)" offset="0.890625"/><stop stop-opacity="1" stop-color="rgb(41.273499%, 1.074219%, 43.998718%)" offset="0.90625"/><stop stop-opacity="1" stop-color="rgb(41.07666%, 0.909424%, 44.348145%)" offset="0.921875"/><stop stop-opacity="1" stop-color="rgb(40.881348%, 0.743103%, 44.697571%)" offset="0.9375"/><stop stop-opacity="1" stop-color="rgb(40.684509%, 0.578308%, 45.046997%)" offset="0.953125"/><stop stop-opacity="1" stop-color="rgb(40.489197%, 0.411987%, 45.394897%)" offset="0.96875"/><stop stop-opacity="1" stop-color="rgb(40.292358%, 0.247192%, 45.744324%)" offset="0.984375"/><stop stop-opacity="1" stop-color="rgb(40.097046%, 0.0823975%, 46.09375%)" offset="1"/></linearGradient></defs><g clip-path="url(#234400711e)"><g clip-path="url(#32fa548fac)"><path stroke-linecap="butt" transform="matrix(0.75, 0, 0, 0.75, 17.506238, 17.50002)" fill="none" stroke-linejoin="miter" d="M 276.663589 0.0051811 L 677.116759 0.0051811 C 829.913651 0.0051811 953.783457 123.869778 953.783457 276.666671 L 953.783457 677.224007 C 953.783457 830.0209 829.913651 953.885497 677.116759 953.885497 L 276.663589 953.885497 C 123.866697 953.885497 0.0020996 830.0209 0.0020996 677.224007 L 0.0020996 276.666671 C 0.0020996 123.869778 123.866697 0.0051811 276.663589 0.0051811 Z M 276.663589 0.0051811 " stroke="url(#36a6f7ecb7)" stroke-width="140" stroke-miterlimit="4"/></g></g><path fill="#861b3d" d="M 589.207031 318.289062 L 397.496094 149.035156 C 396.730469 148.359375 395.933594 147.71875 395.109375 147.113281 C 394.289062 146.507812 393.4375 145.941406 392.5625 145.414062 C 391.6875 144.886719 390.792969 144.398438 389.875 143.953125 C 388.953125 143.507812 388.019531 143.101562 387.0625 142.742188 C 386.105469 142.378906 385.136719 142.0625 384.152344 141.785156 C 383.167969 141.511719 382.175781 141.285156 381.167969 141.101562 C 380.164062 140.914062 379.152344 140.777344 378.136719 140.683594 C 377.117188 140.59375 376.097656 140.546875 375.078125 140.546875 C 374.054688 140.546875 373.035156 140.59375 372.019531 140.683594 C 371 140.777344 369.988281 140.914062 368.984375 141.101562 C 367.980469 141.285156 366.984375 141.511719 366 141.785156 C 365.015625 142.0625 364.046875 142.378906 363.089844 142.742188 C 362.136719 143.101562 361.199219 143.507812 360.28125 143.953125 C 359.359375 144.398438 358.464844 144.886719 357.589844 145.414062 C 356.714844 145.941406 355.867188 146.507812 355.042969 147.113281 C 354.21875 147.71875 353.425781 148.359375 352.660156 149.035156 L 282.796875 210.679688 L 282.796875 203.671875 C 282.796875 203.136719 282.769531 202.597656 282.71875 202.0625 C 282.664062 201.527344 282.585938 200.996094 282.480469 200.464844 C 282.375 199.9375 282.246094 199.417969 282.089844 198.902344 C 281.933594 198.386719 281.75 197.878906 281.546875 197.382812 C 281.339844 196.886719 281.109375 196.398438 280.855469 195.925781 C 280.601562 195.449219 280.324219 194.988281 280.027344 194.539062 C 279.726562 194.09375 279.40625 193.660156 279.066406 193.246094 C 278.722656 192.828125 278.363281 192.429688 277.980469 192.050781 C 277.601562 191.667969 277.203125 191.308594 276.785156 190.964844 C 276.371094 190.625 275.9375 190.304688 275.492188 190.003906 C 275.042969 189.707031 274.582031 189.429688 274.105469 189.175781 C 273.632812 188.921875 273.144531 188.691406 272.648438 188.488281 C 272.152344 188.28125 271.644531 188.097656 271.128906 187.941406 C 270.613281 187.785156 270.09375 187.65625 269.566406 187.550781 C 269.035156 187.445312 268.503906 187.367188 267.96875 187.3125 C 267.433594 187.261719 266.894531 187.234375 266.359375 187.234375 L 225.507812 187.234375 C 224.96875 187.234375 224.433594 187.261719 223.898438 187.3125 C 223.363281 187.367188 222.828125 187.445312 222.300781 187.550781 C 221.773438 187.65625 221.253906 187.785156 220.738281 187.941406 C 220.222656 188.097656 219.714844 188.28125 219.21875 188.488281 C 218.722656 188.691406 218.234375 188.921875 217.761719 189.175781 C 217.285156 189.429688 216.824219 189.707031 216.375 190.003906 C 215.929688 190.304688 215.496094 190.625 215.082031 190.964844 C 214.664062 191.308594 214.265625 191.667969 213.886719 192.050781 C 213.503906 192.429688 213.144531 192.828125 212.800781 193.246094 C 212.460938 193.660156 212.140625 194.09375 211.839844 194.539062 C 211.542969 194.988281 211.265625 195.449219 211.011719 195.925781 C 210.757812 196.398438 210.527344 196.886719 210.320312 197.382812 C 210.117188 197.878906 209.933594 198.386719 209.777344 198.902344 C 209.621094 199.417969 209.492188 199.9375 209.386719 200.464844 C 209.28125 200.996094 209.203125 201.527344 209.148438 202.0625 C 209.097656 202.597656 209.070312 203.136719 209.070312 203.671875 L 209.070312 275.859375 L 161.007812 318.289062 C 137.605469 338.835938 152.214844 377.550781 183.425781 377.550781 L 184.125 377.550781 C 184.511719 376.273438 184.949219 375.011719 185.433594 373.773438 C 185.921875 372.53125 186.457031 371.308594 187.039062 370.109375 C 187.621094 368.910156 188.253906 367.738281 188.929688 366.589844 C 189.609375 365.4375 190.332031 364.320312 191.097656 363.226562 C 191.863281 362.136719 192.671875 361.078125 193.523438 360.050781 C 194.375 359.023438 195.265625 358.035156 196.199219 357.078125 C 197.128906 356.121094 198.09375 355.207031 199.097656 354.328125 C 200.101562 353.449219 201.140625 352.613281 202.210938 351.816406 C 203.28125 351.019531 204.378906 350.269531 205.511719 349.5625 C 206.640625 348.855469 207.796875 348.191406 208.980469 347.578125 C 210.164062 346.960938 211.371094 346.394531 212.597656 345.875 C 213.828125 345.355469 215.074219 344.886719 216.339844 344.464844 C 217.605469 344.046875 218.886719 343.679688 220.183594 343.359375 C 221.476562 343.042969 222.785156 342.777344 224.101562 342.566406 C 225.417969 342.351562 226.738281 342.191406 228.070312 342.082031 C 229.398438 341.976562 230.730469 341.921875 232.0625 341.917969 L 244.640625 341.917969 C 244.664062 340.828125 244.714844 339.734375 244.792969 338.644531 C 244.871094 337.554688 244.976562 336.464844 245.109375 335.378906 C 245.238281 334.292969 245.398438 333.210938 245.578125 332.132812 C 245.761719 331.054688 245.972656 329.984375 246.207031 328.914062 C 246.441406 327.847656 246.703125 326.785156 246.992188 325.730469 C 247.277344 324.675781 247.589844 323.628906 247.925781 322.589844 C 248.261719 321.546875 248.625 320.515625 249.011719 319.492188 C 249.398438 318.472656 249.8125 317.457031 250.246094 316.457031 C 250.683594 315.453125 251.144531 314.460938 251.628906 313.480469 C 252.113281 312.5 252.621094 311.53125 253.148438 310.578125 C 253.679688 309.621094 254.234375 308.679688 254.8125 307.75 C 255.386719 306.820312 255.988281 305.90625 256.609375 305.003906 C 257.226562 304.105469 257.871094 303.222656 258.535156 302.351562 C 259.199219 301.484375 259.882812 300.628906 260.585938 299.792969 C 261.292969 298.957031 262.015625 298.140625 262.761719 297.339844 C 263.503906 296.539062 264.269531 295.753906 265.050781 294.992188 C 265.832031 294.226562 266.632812 293.484375 267.449219 292.757812 C 268.269531 292.03125 269.105469 291.328125 269.957031 290.640625 C 270.808594 289.957031 271.675781 289.292969 272.5625 288.652344 C 273.445312 288.007812 274.347656 287.386719 275.261719 286.789062 C 276.175781 286.1875 277.105469 285.609375 278.046875 285.058594 C 278.988281 284.503906 279.945312 283.972656 280.910156 283.460938 C 281.878906 282.953125 282.859375 282.46875 283.851562 282.007812 C 284.84375 281.546875 285.84375 281.113281 286.859375 280.699219 C 287.871094 280.289062 288.894531 279.898438 289.925781 279.535156 C 290.957031 279.175781 291.996094 278.835938 293.042969 278.523438 C 294.089844 278.210938 295.144531 277.925781 296.207031 277.664062 C 297.269531 277.402344 298.335938 277.164062 299.410156 276.957031 C 300.484375 276.746094 301.558594 276.5625 302.640625 276.402344 C 303.722656 276.246094 304.808594 276.113281 305.898438 276.007812 C 306.984375 275.902344 308.078125 275.824219 309.167969 275.773438 C 310.261719 275.71875 311.351562 275.691406 312.445312 275.695312 L 437.789062 275.695312 C 438.882812 275.691406 439.976562 275.71875 441.066406 275.773438 C 442.160156 275.824219 443.25 275.902344 444.335938 276.007812 C 445.425781 276.113281 446.511719 276.246094 447.59375 276.402344 C 448.675781 276.5625 449.753906 276.746094 450.824219 276.957031 C 451.898438 277.164062 452.964844 277.402344 454.027344 277.664062 C 455.089844 277.925781 456.144531 278.210938 457.191406 278.523438 C 458.238281 278.835938 459.28125 279.175781 460.3125 279.535156 C 461.34375 279.898438 462.363281 280.289062 463.378906 280.699219 C 464.390625 281.113281 465.390625 281.546875 466.382812 282.007812 C 467.375 282.46875 468.355469 282.953125 469.324219 283.460938 C 470.292969 283.972656 471.246094 284.503906 472.1875 285.058594 C 473.132812 285.609375 474.058594 286.1875 474.976562 286.789062 C 475.890625 287.386719 476.789062 288.007812 477.671875 288.652344 C 478.558594 289.292969 479.425781 289.957031 480.277344 290.640625 C 481.132812 291.328125 481.964844 292.03125 482.785156 292.757812 C 483.601562 293.484375 484.402344 294.226562 485.183594 294.992188 C 485.96875 295.753906 486.730469 296.539062 487.476562 297.339844 C 488.21875 298.140625 488.945312 298.957031 489.648438 299.792969 C 490.355469 300.628906 491.039062 301.484375 491.703125 302.351562 C 492.363281 303.222656 493.007812 304.105469 493.628906 305.003906 C 494.25 305.90625 494.847656 306.820312 495.425781 307.75 C 496 308.679688 496.554688 309.621094 497.085938 310.578125 C 497.617188 311.53125 498.125 312.5 498.609375 313.480469 C 499.089844 314.460938 499.550781 315.453125 499.988281 316.457031 C 500.425781 317.457031 500.835938 318.472656 501.222656 319.492188 C 501.609375 320.515625 501.972656 321.546875 502.308594 322.589844 C 502.648438 323.628906 502.957031 324.675781 503.246094 325.730469 C 503.53125 326.785156 503.792969 327.847656 504.027344 328.914062 C 504.261719 329.984375 504.472656 331.054688 504.65625 332.132812 C 504.839844 333.210938 504.996094 334.292969 505.125 335.378906 C 505.257812 336.464844 505.363281 337.554688 505.441406 338.644531 C 505.519531 339.734375 505.570312 340.828125 505.597656 341.917969 L 518.273438 341.917969 C 519.605469 341.921875 520.9375 341.972656 522.265625 342.082031 C 523.59375 342.1875 524.917969 342.347656 526.234375 342.5625 C 527.546875 342.773438 528.851562 343.039062 530.148438 343.355469 C 531.441406 343.671875 532.722656 344.039062 533.988281 344.457031 C 535.253906 344.875 536.5 345.34375 537.726562 345.863281 C 538.957031 346.378906 540.160156 346.945312 541.34375 347.558594 C 542.527344 348.175781 543.683594 348.835938 544.8125 349.542969 C 545.945312 350.246094 547.042969 350.996094 548.113281 351.792969 C 549.183594 352.585938 550.222656 353.421875 551.226562 354.296875 C 552.230469 355.175781 553.195312 356.089844 554.125 357.042969 C 555.058594 358 555.949219 358.988281 556.800781 360.011719 C 557.652344 361.039062 558.460938 362.09375 559.230469 363.183594 C 559.996094 364.273438 560.71875 365.394531 561.398438 366.539062 C 562.074219 367.6875 562.707031 368.859375 563.292969 370.058594 C 563.875 371.253906 564.414062 372.472656 564.902344 373.714844 C 565.386719 374.953125 565.824219 376.210938 566.210938 377.488281 L 566.808594 377.488281 C 597.9375 377.550781 612.546875 338.941406 589.207031 318.289062 Z M 589.207031 318.289062 " fill-opacity="1" fill-rule="nonzero"/><path fill="#861b3d" d="M 301.535156 392.054688 L 301.535156 462.535156 C 301.535156 463.539062 301.632812 464.53125 301.828125 465.515625 C 302.023438 466.5 302.3125 467.453125 302.699219 468.378906 C 303.082031 469.308594 303.550781 470.1875 304.109375 471.023438 C 304.664062 471.855469 305.296875 472.628906 306.007812 473.339844 C 306.714844 474.046875 307.484375 474.679688 308.320312 475.238281 C 309.152344 475.796875 310.03125 476.269531 310.957031 476.652344 C 311.886719 477.039062 312.839844 477.328125 313.824219 477.527344 C 314.808594 477.722656 315.800781 477.820312 316.804688 477.824219 L 433.308594 477.824219 C 434.3125 477.820312 435.304688 477.722656 436.289062 477.527344 C 437.273438 477.328125 438.230469 477.039062 439.15625 476.652344 C 440.082031 476.269531 440.964844 475.796875 441.796875 475.238281 C 442.632812 474.683594 443.402344 474.046875 444.113281 473.339844 C 444.824219 472.628906 445.457031 471.859375 446.015625 471.023438 C 446.570312 470.191406 447.042969 469.308594 447.429688 468.382812 C 447.8125 467.457031 448.101562 466.5 448.300781 465.515625 C 448.496094 464.53125 448.59375 463.539062 448.597656 462.535156 L 448.597656 392.054688 C 448.597656 390.703125 448.65625 389.351562 448.765625 388.003906 C 448.878906 386.65625 449.042969 385.3125 449.261719 383.980469 C 449.484375 382.644531 449.757812 381.320312 450.082031 380.007812 C 450.410156 378.695312 450.789062 377.398438 451.222656 376.117188 C 451.652344 374.832031 452.136719 373.570312 452.671875 372.328125 C 453.203125 371.085938 453.789062 369.863281 454.421875 368.667969 C 455.054688 367.472656 455.734375 366.304688 456.460938 365.164062 C 457.1875 364.023438 457.960938 362.914062 458.777344 361.835938 C 459.59375 360.757812 460.453125 359.710938 461.351562 358.703125 C 462.253906 357.695312 463.195312 356.722656 464.175781 355.792969 C 465.15625 354.859375 466.171875 353.964844 467.222656 353.117188 C 468.273438 352.265625 469.359375 351.457031 470.476562 350.695312 C 471.59375 349.933594 472.738281 349.214844 473.914062 348.546875 C 475.089844 347.875 476.289062 347.253906 477.515625 346.679688 C 478.742188 346.105469 479.988281 345.585938 481.257812 345.113281 C 482.523438 344.640625 483.808594 344.21875 485.109375 343.851562 L 485.109375 343.523438 C 485.109375 341.972656 485.035156 340.421875 484.882812 338.878906 C 484.730469 337.335938 484.503906 335.804688 484.199219 334.28125 C 483.898438 332.761719 483.523438 331.257812 483.074219 329.773438 C 482.621094 328.289062 482.101562 326.828125 481.507812 325.394531 C 480.914062 323.960938 480.253906 322.5625 479.523438 321.191406 C 478.792969 319.824219 477.996094 318.496094 477.132812 317.207031 C 476.273438 315.914062 475.351562 314.667969 474.367188 313.46875 C 473.382812 312.269531 472.34375 311.121094 471.246094 310.023438 C 470.152344 308.925781 469.003906 307.886719 467.804688 306.898438 C 466.609375 305.914062 465.363281 304.992188 464.074219 304.128906 C 462.785156 303.265625 461.457031 302.46875 460.089844 301.734375 C 458.722656 301.003906 457.324219 300.339844 455.890625 299.746094 C 454.457031 299.148438 453 298.625 451.515625 298.175781 C 450.03125 297.722656 448.527344 297.34375 447.007812 297.039062 C 445.488281 296.734375 443.953125 296.507812 442.410156 296.351562 C 440.867188 296.199219 439.320312 296.121094 437.769531 296.117188 L 312.425781 296.117188 C 310.871094 296.117188 309.324219 296.191406 307.777344 296.34375 C 306.230469 296.492188 304.695312 296.71875 303.171875 297.023438 C 301.648438 297.324219 300.144531 297.699219 298.65625 298.148438 C 297.167969 298.597656 295.707031 299.121094 294.273438 299.714844 C 292.835938 300.308594 291.433594 300.972656 290.0625 301.703125 C 288.695312 302.433594 287.363281 303.230469 286.070312 304.09375 C 284.777344 304.957031 283.53125 305.878906 282.332031 306.863281 C 281.128906 307.847656 279.980469 308.890625 278.878906 309.988281 C 277.78125 311.085938 276.738281 312.234375 275.753906 313.433594 C 274.765625 314.636719 273.84375 315.882812 272.980469 317.171875 C 272.117188 318.464844 271.316406 319.796875 270.585938 321.164062 C 269.851562 322.535156 269.1875 323.9375 268.59375 325.371094 C 268 326.808594 267.476562 328.269531 267.023438 329.753906 C 266.574219 331.242188 266.195312 332.746094 265.894531 334.269531 C 265.589844 335.792969 265.363281 337.328125 265.210938 338.875 C 265.058594 340.417969 264.980469 341.96875 264.980469 343.523438 L 264.980469 343.832031 C 266.285156 344.199219 267.570312 344.617188 268.839844 345.089844 C 270.109375 345.558594 271.359375 346.082031 272.585938 346.652344 C 273.8125 347.226562 275.015625 347.847656 276.191406 348.519531 C 277.367188 349.1875 278.515625 349.902344 279.632812 350.667969 C 280.753906 351.429688 281.839844 352.234375 282.890625 353.085938 C 283.945312 353.9375 284.964844 354.828125 285.945312 355.761719 C 286.925781 356.695312 287.867188 357.667969 288.769531 358.675781 C 289.671875 359.6875 290.53125 360.730469 291.351562 361.808594 C 292.167969 362.886719 292.941406 364 293.667969 365.140625 C 294.398438 366.28125 295.078125 367.453125 295.710938 368.648438 C 296.34375 369.84375 296.929688 371.066406 297.464844 372.308594 C 297.996094 373.554688 298.480469 374.816406 298.914062 376.101562 C 299.34375 377.382812 299.726562 378.683594 300.050781 379.996094 C 300.378906 381.3125 300.652344 382.636719 300.871094 383.972656 C 301.089844 385.308594 301.257812 386.652344 301.367188 388 C 301.476562 389.351562 301.535156 390.703125 301.535156 392.054688 Z M 301.535156 392.054688 " fill-opacity="1" fill-rule="nonzero"/><path fill="#861b3d" d="M 518.191406 360.082031 L 498.796875 360.082031 C 497.75 360.082031 496.703125 360.136719 495.660156 360.238281 C 494.621094 360.339844 493.585938 360.492188 492.558594 360.699219 C 491.53125 360.902344 490.515625 361.15625 489.515625 361.460938 C 488.511719 361.765625 487.527344 362.117188 486.558594 362.515625 C 485.59375 362.917969 484.648438 363.367188 483.722656 363.859375 C 482.800781 364.351562 481.902344 364.890625 481.03125 365.472656 C 480.160156 366.054688 479.320312 366.675781 478.511719 367.339844 C 477.703125 368.003906 476.929688 368.707031 476.1875 369.449219 C 475.445312 370.1875 474.746094 370.964844 474.082031 371.773438 C 473.414062 372.582031 472.792969 373.421875 472.210938 374.292969 C 471.628906 375.164062 471.089844 376.0625 470.597656 376.984375 C 470.105469 377.90625 469.65625 378.851562 469.257812 379.820312 C 468.855469 380.789062 468.503906 381.773438 468.199219 382.773438 C 467.894531 383.777344 467.640625 384.792969 467.4375 385.820312 C 467.234375 386.84375 467.078125 387.878906 466.976562 388.921875 C 466.875 389.964844 466.824219 391.007812 466.824219 392.054688 L 466.824219 462.535156 C 466.828125 463.632812 466.777344 464.726562 466.671875 465.820312 C 466.566406 466.910156 466.410156 467.996094 466.199219 469.070312 C 465.984375 470.148438 465.722656 471.210938 465.40625 472.261719 C 465.089844 473.3125 464.722656 474.34375 464.304688 475.359375 C 463.886719 476.375 463.421875 477.363281 462.90625 478.332031 C 462.390625 479.300781 461.828125 480.242188 461.21875 481.15625 C 460.609375 482.066406 459.957031 482.949219 459.261719 483.796875 C 458.566406 484.644531 457.832031 485.457031 457.058594 486.234375 C 456.28125 487.011719 455.472656 487.746094 454.625 488.441406 C 453.777344 489.140625 452.894531 489.792969 451.984375 490.402344 C 451.070312 491.011719 450.132812 491.574219 449.164062 492.089844 C 448.195312 492.605469 447.207031 493.074219 446.191406 493.496094 C 445.179688 493.914062 444.144531 494.28125 443.097656 494.597656 C 442.046875 494.917969 440.984375 495.183594 439.90625 495.394531 C 438.832031 495.609375 437.746094 495.765625 436.65625 495.871094 C 435.5625 495.976562 434.46875 496.03125 433.371094 496.027344 L 316.863281 496.027344 C 315.769531 496.027344 314.675781 495.972656 313.585938 495.867188 C 312.496094 495.757812 311.414062 495.597656 310.335938 495.382812 C 309.261719 495.171875 308.203125 494.902344 307.152344 494.585938 C 306.105469 494.265625 305.074219 493.898438 304.0625 493.476562 C 303.050781 493.058594 302.0625 492.585938 301.097656 492.070312 C 300.128906 491.554688 299.191406 490.988281 298.28125 490.378906 C 297.371094 489.769531 296.492188 489.117188 295.648438 488.421875 C 294.800781 487.722656 293.992188 486.988281 293.21875 486.210938 C 292.445312 485.4375 291.710938 484.625 291.015625 483.777344 C 290.324219 482.925781 289.671875 482.046875 289.066406 481.136719 C 288.457031 480.222656 287.898438 479.28125 287.382812 478.316406 C 286.871094 477.347656 286.402344 476.359375 285.988281 475.34375 C 285.570312 474.332031 285.203125 473.300781 284.886719 472.25 C 284.574219 471.203125 284.308594 470.140625 284.097656 469.0625 C 283.886719 467.988281 283.730469 466.90625 283.625 465.816406 C 283.519531 464.722656 283.472656 463.632812 283.472656 462.535156 L 283.472656 392.054688 C 283.472656 391.007812 283.421875 389.964844 283.320312 388.921875 C 283.21875 387.878906 283.0625 386.84375 282.859375 385.820312 C 282.65625 384.792969 282.402344 383.777344 282.097656 382.773438 C 281.792969 381.773438 281.441406 380.789062 281.039062 379.820312 C 280.640625 378.851562 280.191406 377.90625 279.699219 376.984375 C 279.207031 376.0625 278.667969 375.164062 278.085938 374.292969 C 277.503906 373.421875 276.882812 372.582031 276.21875 371.773438 C 275.550781 370.964844 274.851562 370.1875 274.109375 369.449219 C 273.371094 368.707031 272.59375 368.003906 271.785156 367.339844 C 270.976562 366.675781 270.136719 366.054688 269.265625 365.472656 C 268.394531 364.890625 267.496094 364.351562 266.574219 363.859375 C 265.648438 363.367188 264.703125 362.917969 263.738281 362.515625 C 262.769531 362.117188 261.785156 361.765625 260.78125 361.460938 C 259.78125 361.15625 258.765625 360.902344 257.738281 360.699219 C 256.710938 360.492188 255.679688 360.339844 254.636719 360.238281 C 253.59375 360.136719 252.550781 360.082031 251.5 360.082031 L 232.0625 360.082031 C 231.015625 360.082031 229.972656 360.136719 228.929688 360.238281 C 227.886719 360.339844 226.851562 360.492188 225.824219 360.699219 C 224.800781 360.902344 223.785156 361.15625 222.78125 361.460938 C 221.78125 361.765625 220.796875 362.117188 219.828125 362.515625 C 218.859375 362.917969 217.914062 363.367188 216.992188 363.859375 C 216.070312 364.351562 215.171875 364.890625 214.300781 365.472656 C 213.429688 366.054688 212.589844 366.675781 211.78125 367.339844 C 210.972656 368.003906 210.195312 368.707031 209.457031 369.449219 C 208.714844 370.1875 208.011719 370.964844 207.347656 371.773438 C 206.683594 372.582031 206.0625 373.421875 205.480469 374.292969 C 204.898438 375.164062 204.359375 376.0625 203.867188 376.984375 C 203.371094 377.90625 202.925781 378.851562 202.523438 379.820312 C 202.125 380.789062 201.773438 381.773438 201.46875 382.773438 C 201.164062 383.777344 200.910156 384.792969 200.707031 385.820312 C 200.5 386.84375 200.347656 387.878906 200.246094 388.921875 C 200.140625 389.964844 200.089844 391.007812 200.089844 392.054688 L 200.089844 492.90625 C 200.089844 495.109375 200.179688 497.308594 200.363281 499.5 C 200.542969 501.695312 200.8125 503.882812 201.171875 506.054688 C 201.535156 508.226562 201.980469 510.382812 202.519531 512.519531 C 203.058594 514.65625 203.679688 516.765625 204.390625 518.851562 C 205.101562 520.933594 205.898438 522.988281 206.777344 525.007812 C 207.65625 527.027344 208.617188 529.007812 209.660156 530.945312 C 210.699219 532.886719 211.820312 534.78125 213.019531 536.628906 C 214.214844 538.480469 215.488281 540.273438 216.832031 542.019531 C 218.179688 543.761719 219.59375 545.449219 221.078125 547.078125 C 222.5625 548.703125 224.109375 550.269531 225.722656 551.769531 C 227.335938 553.269531 229.007812 554.703125 230.738281 556.066406 C 232.46875 557.429688 234.25 558.71875 236.085938 559.933594 C 237.921875 561.152344 239.804688 562.289062 241.734375 563.351562 C 243.664062 564.414062 245.636719 565.394531 247.648438 566.292969 C 249.65625 567.195312 251.699219 568.011719 253.777344 568.742188 C 255.855469 569.472656 257.960938 570.121094 260.089844 570.679688 L 253.453125 590.546875 C 253.132812 591.515625 252.90625 592.507812 252.78125 593.519531 C 252.652344 594.535156 252.625 595.550781 252.699219 596.566406 C 252.769531 597.585938 252.941406 598.585938 253.207031 599.574219 C 253.476562 600.558594 253.839844 601.507812 254.292969 602.421875 C 254.746094 603.335938 255.285156 604.195312 255.910156 605.003906 C 256.535156 605.8125 257.230469 606.554688 258 607.226562 C 258.765625 607.898438 259.59375 608.488281 260.480469 608.996094 C 261.363281 609.507812 262.289062 609.925781 263.253906 610.253906 C 263.742188 610.417969 264.234375 610.558594 264.734375 610.675781 C 265.234375 610.789062 265.738281 610.878906 266.246094 610.945312 C 266.753906 611.011719 267.265625 611.054688 267.777344 611.070312 C 268.289062 611.085938 268.800781 611.074219 269.3125 611.039062 C 269.824219 611.003906 270.332031 610.945312 270.839844 610.859375 C 271.34375 610.773438 271.84375 610.664062 272.339844 610.527344 C 272.835938 610.394531 273.320312 610.234375 273.800781 610.050781 C 274.28125 609.871094 274.75 609.664062 275.207031 609.433594 C 275.667969 609.207031 276.113281 608.953125 276.546875 608.679688 C 276.980469 608.40625 277.402344 608.113281 277.804688 607.800781 C 278.210938 607.484375 278.597656 607.152344 278.972656 606.796875 C 279.34375 606.445312 279.695312 606.074219 280.03125 605.6875 C 280.367188 605.296875 280.683594 604.894531 280.976562 604.476562 C 281.273438 604.054688 281.546875 603.625 281.800781 603.175781 C 282.054688 602.730469 282.285156 602.273438 282.492188 601.804688 C 282.699219 601.335938 282.882812 600.855469 283.042969 600.371094 L 292.144531 573.289062 L 458.273438 573.289062 L 467.355469 600.371094 C 467.6875 601.335938 468.105469 602.261719 468.617188 603.148438 C 469.128906 604.03125 469.71875 604.859375 470.394531 605.625 C 471.066406 606.394531 471.808594 607.089844 472.617188 607.714844 C 473.425781 608.335938 474.289062 608.875 475.203125 609.328125 C 476.117188 609.78125 477.070312 610.144531 478.054688 610.410156 C 479.039062 610.675781 480.042969 610.847656 481.0625 610.917969 C 482.082031 610.988281 483.097656 610.957031 484.109375 610.828125 C 485.125 610.699219 486.113281 610.472656 487.082031 610.152344 C 488.039062 609.816406 488.949219 609.390625 489.824219 608.878906 C 490.695312 608.363281 491.507812 607.773438 492.265625 607.101562 C 493.023438 606.429688 493.707031 605.691406 494.320312 604.886719 C 494.933594 604.082031 495.464844 603.226562 495.910156 602.320312 C 496.359375 601.414062 496.714844 600.472656 496.976562 599.496094 C 497.242188 598.519531 497.410156 597.523438 497.480469 596.515625 C 497.550781 595.507812 497.523438 594.5 497.402344 593.496094 C 497.277344 592.492188 497.054688 591.507812 496.742188 590.546875 L 490.082031 570.78125 C 492.21875 570.222656 494.324219 569.578125 496.40625 568.847656 C 498.488281 568.117188 500.535156 567.300781 502.550781 566.402344 C 504.566406 565.503906 506.539062 564.519531 508.472656 563.460938 C 510.40625 562.398438 512.292969 561.257812 514.132812 560.039062 C 515.972656 558.820312 517.757812 557.53125 519.492188 556.167969 C 521.226562 554.800781 522.902344 553.367188 524.515625 551.867188 C 526.132812 550.363281 527.683594 548.796875 529.167969 547.167969 C 530.65625 545.539062 532.074219 543.847656 533.421875 542.101562 C 534.769531 540.355469 536.042969 538.554688 537.242188 536.703125 C 538.441406 534.851562 539.5625 532.957031 540.605469 531.011719 C 541.648438 529.066406 542.609375 527.082031 543.492188 525.0625 C 544.371094 523.039062 545.167969 520.980469 545.878906 518.894531 C 546.589844 516.804688 547.210938 514.691406 547.75 512.550781 C 548.285156 510.410156 548.734375 508.253906 549.09375 506.074219 C 549.453125 503.898438 549.722656 501.710938 549.898438 499.511719 C 550.078125 497.3125 550.167969 495.109375 550.164062 492.90625 L 550.164062 392.054688 C 550.164062 391.007812 550.113281 389.964844 550.011719 388.921875 C 549.910156 387.878906 549.753906 386.84375 549.550781 385.820312 C 549.347656 384.792969 549.09375 383.777344 548.789062 382.773438 C 548.484375 381.773438 548.132812 380.789062 547.730469 379.820312 C 547.332031 378.851562 546.882812 377.90625 546.390625 376.984375 C 545.894531 376.0625 545.359375 375.164062 544.777344 374.292969 C 544.195312 373.421875 543.570312 372.582031 542.90625 371.773438 C 542.242188 370.964844 541.539062 370.1875 540.800781 369.449219 C 540.058594 368.707031 539.285156 368.003906 538.476562 367.339844 C 537.667969 366.675781 536.824219 366.054688 535.957031 365.472656 C 535.085938 364.890625 534.1875 364.351562 533.265625 363.859375 C 532.339844 363.367188 531.394531 362.917969 530.429688 362.515625 C 529.460938 362.117188 528.476562 361.765625 527.472656 361.460938 C 526.472656 361.15625 525.457031 360.902344 524.429688 360.699219 C 523.402344 360.492188 522.367188 360.339844 521.328125 360.238281 C 520.285156 360.136719 519.238281 360.082031 518.191406 360.082031 Z M 518.191406 360.082031 " fill-opacity="1" fill-rule="nonzero"/></svg>