<svg xmlns="http://www.w3.org/2000/svg" xmlns:xlink="http://www.w3.org/1999/xlink" width="1000" zoomAndPan="magnify" viewBox="0 0 750 749.999995" height="1000" preserveAspectRatio="xMidYMid meet" version="1.0"><defs><clipPath id="95e406fc15"><path d="M 17.105469 17.109375 L 732.605469 17.109375 L 732.605469 732.609375 L 17.105469 732.609375 Z M 17.105469 17.109375 " clip-rule="nonzero"/></clipPath><clipPath id="d4b1988f0f"><path d="M 224.605469 17.109375 L 525.308594 17.109375 C 580.339844 17.109375 633.117188 38.972656 672.03125 77.882812 C 710.945312 116.796875 732.804688 169.574219 732.804688 224.609375 L 732.804688 525.390625 C 732.804688 580.421875 710.945312 633.199219 672.03125 672.113281 C 633.117188 711.027344 580.339844 732.886719 525.308594 732.886719 L 224.605469 732.886719 C 169.570312 732.886719 116.792969 711.027344 77.878906 672.113281 C 38.96875 633.199219 17.105469 580.421875 17.105469 525.390625 L 17.105469 224.609375 C 17.105469 169.574219 38.96875 116.796875 77.878906 77.882812 C 116.792969 38.972656 169.570312 17.109375 224.605469 17.109375 Z M 224.605469 17.109375 " clip-rule="nonzero"/></clipPath><linearGradient x1="-0.0000000580949" gradientTransform="matrix(7.177886, 0, 0, 7.177886, 0.000000416999, 0.0029169)" y1="66.480003" x2="132.908212" gradientUnits="userSpaceOnUse" y2="66.480003" id="d370a93008"><stop stop-opacity="1" stop-color="rgb(0%, 59.21936%, 69.799805%)" offset="0"/><stop stop-opacity="1" stop-color="rgb(0.192261%, 59.320068%, 69.659424%)" offset="0.0078125"/><stop stop-opacity="1" stop-color="rgb(0.576782%, 59.521484%, 69.380188%)" offset="0.015625"/><stop stop-opacity="1" stop-color="rgb(0.96283%, 59.724426%, 69.102478%)" offset="0.0234375"/><stop stop-opacity="1" stop-color="rgb(1.348877%, 59.925842%, 68.823242%)" offset="0.03125"/><stop stop-opacity="1" stop-color="rgb(1.734924%, 60.128784%, 68.544006%)" offset="0.0390625"/><stop stop-opacity="1" stop-color="rgb(2.120972%, 60.3302%, 68.266296%)" offset="0.046875"/><stop stop-opacity="1" stop-color="rgb(2.507019%, 60.533142%, 67.987061%)" offset="0.0546875"/><stop stop-opacity="1" stop-color="rgb(2.893066%, 60.734558%, 67.709351%)" offset="0.0625"/><stop stop-opacity="1" stop-color="rgb(3.279114%, 60.9375%, 67.430115%)" offset="0.0703125"/><stop stop-opacity="1" stop-color="rgb(3.665161%, 61.138916%, 67.150879%)" offset="0.078125"/><stop stop-opacity="1" stop-color="rgb(4.051208%, 61.341858%, 66.873169%)" offset="0.0859375"/><stop stop-opacity="1" stop-color="rgb(4.437256%, 61.543274%, 66.593933%)" offset="0.09375"/><stop stop-opacity="1" stop-color="rgb(4.821777%, 61.746216%, 66.314697%)" offset="0.101562"/><stop stop-opacity="1" stop-color="rgb(5.207825%, 61.947632%, 66.036987%)" offset="0.109375"/><stop stop-opacity="1" stop-color="rgb(5.593872%, 62.149048%, 65.757751%)" offset="0.117188"/><stop stop-opacity="1" stop-color="rgb(5.979919%, 62.35199%, 65.480042%)" offset="0.125"/><stop stop-opacity="1" stop-color="rgb(6.365967%, 62.553406%, 65.200806%)" offset="0.132812"/><stop stop-opacity="1" stop-color="rgb(6.752014%, 62.756348%, 64.92157%)" offset="0.140625"/><stop stop-opacity="1" stop-color="rgb(7.138062%, 62.957764%, 64.64386%)" offset="0.148438"/><stop stop-opacity="1" stop-color="rgb(7.524109%, 63.160706%, 64.364624%)" offset="0.15625"/><stop stop-opacity="1" stop-color="rgb(7.910156%, 63.362122%, 64.085388%)" offset="0.164062"/><stop stop-opacity="1" stop-color="rgb(8.296204%, 63.565063%, 63.807678%)" offset="0.171875"/><stop stop-opacity="1" stop-color="rgb(8.682251%, 63.766479%, 63.528442%)" offset="0.179688"/><stop stop-opacity="1" stop-color="rgb(9.066772%, 63.969421%, 63.249207%)" offset="0.1875"/><stop stop-opacity="1" stop-color="rgb(9.45282%, 64.170837%, 62.971497%)" offset="0.195312"/><stop stop-opacity="1" stop-color="rgb(9.838867%, 64.373779%, 62.692261%)" offset="0.203125"/><stop stop-opacity="1" stop-color="rgb(10.224915%, 64.575195%, 62.414551%)" offset="0.210937"/><stop stop-opacity="1" stop-color="rgb(10.610962%, 64.778137%, 62.135315%)" offset="0.21875"/><stop stop-opacity="1" stop-color="rgb(10.997009%, 64.979553%, 61.856079%)" offset="0.226562"/><stop stop-opacity="1" stop-color="rgb(11.383057%, 65.182495%, 61.578369%)" offset="0.234375"/><stop stop-opacity="1" stop-color="rgb(11.769104%, 65.383911%, 61.299133%)" offset="0.242188"/><stop stop-opacity="1" stop-color="rgb(12.155151%, 65.585327%, 61.019897%)" offset="0.25"/><stop stop-opacity="1" stop-color="rgb(12.541199%, 65.788269%, 60.742188%)" offset="0.257813"/><stop stop-opacity="1" stop-color="rgb(12.927246%, 65.989685%, 60.462952%)" offset="0.265625"/><stop stop-opacity="1" stop-color="rgb(13.311768%, 66.192627%, 60.185242%)" offset="0.273438"/><stop stop-opacity="1" stop-color="rgb(13.697815%, 66.394043%, 59.906006%)" offset="0.28125"/><stop stop-opacity="1" stop-color="rgb(14.083862%, 66.596985%, 59.62677%)" offset="0.289062"/><stop stop-opacity="1" stop-color="rgb(14.46991%, 66.798401%, 59.34906%)" offset="0.296875"/><stop stop-opacity="1" stop-color="rgb(14.855957%, 67.001343%, 59.069824%)" offset="0.304688"/><stop stop-opacity="1" stop-color="rgb(15.242004%, 67.202759%, 58.790588%)" offset="0.3125"/><stop stop-opacity="1" stop-color="rgb(15.628052%, 67.405701%, 58.512878%)" offset="0.320312"/><stop stop-opacity="1" stop-color="rgb(16.014099%, 67.607117%, 58.233643%)" offset="0.328125"/><stop stop-opacity="1" stop-color="rgb(16.400146%, 67.810059%, 57.954407%)" offset="0.335938"/><stop stop-opacity="1" stop-color="rgb(16.786194%, 68.011475%, 57.676697%)" offset="0.34375"/><stop stop-opacity="1" stop-color="rgb(17.172241%, 68.214417%, 57.397461%)" offset="0.351563"/><stop stop-opacity="1" stop-color="rgb(17.556763%, 68.415833%, 57.119751%)" offset="0.359375"/><stop stop-opacity="1" stop-color="rgb(17.94281%, 68.617249%, 56.840515%)" offset="0.367188"/><stop stop-opacity="1" stop-color="rgb(18.328857%, 68.82019%, 56.561279%)" offset="0.375"/><stop stop-opacity="1" stop-color="rgb(18.714905%, 69.021606%, 56.283569%)" offset="0.382813"/><stop stop-opacity="1" stop-color="rgb(19.100952%, 69.224548%, 56.004333%)" offset="0.390625"/><stop stop-opacity="1" stop-color="rgb(19.487%, 69.425964%, 55.725098%)" offset="0.398438"/><stop stop-opacity="1" stop-color="rgb(19.873047%, 69.628906%, 55.447388%)" offset="0.40625"/><stop stop-opacity="1" stop-color="rgb(20.259094%, 69.830322%, 55.168152%)" offset="0.414063"/><stop stop-opacity="1" stop-color="rgb(20.645142%, 70.033264%, 54.890442%)" offset="0.421875"/><stop stop-opacity="1" stop-color="rgb(21.031189%, 70.23468%, 54.611206%)" offset="0.429688"/><stop stop-opacity="1" stop-color="rgb(21.417236%, 70.437622%, 54.33197%)" offset="0.4375"/><stop stop-opacity="1" stop-color="rgb(21.801758%, 70.639038%, 54.05426%)" offset="0.445313"/><stop stop-opacity="1" stop-color="rgb(22.187805%, 70.84198%, 53.775024%)" offset="0.453125"/><stop stop-opacity="1" stop-color="rgb(22.573853%, 71.043396%, 53.495789%)" offset="0.460938"/><stop stop-opacity="1" stop-color="rgb(22.9599%, 71.246338%, 53.218079%)" offset="0.46875"/><stop stop-opacity="1" stop-color="rgb(23.345947%, 71.447754%, 52.938843%)" offset="0.476563"/><stop stop-opacity="1" stop-color="rgb(23.731995%, 71.650696%, 52.661133%)" offset="0.484375"/><stop stop-opacity="1" stop-color="rgb(24.118042%, 71.852112%, 52.381897%)" offset="0.492188"/><stop stop-opacity="1" stop-color="rgb(24.504089%, 72.053528%, 52.102661%)" offset="0.5"/><stop stop-opacity="1" stop-color="rgb(24.890137%, 72.25647%, 51.824951%)" offset="0.507812"/><stop stop-opacity="1" stop-color="rgb(25.276184%, 72.457886%, 51.545715%)" offset="0.515625"/><stop stop-opacity="1" stop-color="rgb(25.662231%, 72.660828%, 51.266479%)" offset="0.523437"/><stop stop-opacity="1" stop-color="rgb(26.046753%, 72.862244%, 50.98877%)" offset="0.53125"/><stop stop-opacity="1" stop-color="rgb(26.4328%, 73.065186%, 50.709534%)" offset="0.539062"/><stop stop-opacity="1" stop-color="rgb(26.818848%, 73.266602%, 50.430298%)" offset="0.546875"/><stop stop-opacity="1" stop-color="rgb(27.204895%, 73.469543%, 50.152588%)" offset="0.554687"/><stop stop-opacity="1" stop-color="rgb(27.590942%, 73.670959%, 49.873352%)" offset="0.5625"/><stop stop-opacity="1" stop-color="rgb(27.97699%, 73.873901%, 49.595642%)" offset="0.570312"/><stop stop-opacity="1" stop-color="rgb(28.363037%, 74.075317%, 49.316406%)" offset="0.578125"/><stop stop-opacity="1" stop-color="rgb(28.749084%, 74.278259%, 49.03717%)" offset="0.585937"/><stop stop-opacity="1" stop-color="rgb(29.135132%, 74.479675%, 48.75946%)" offset="0.59375"/><stop stop-opacity="1" stop-color="rgb(29.521179%, 74.682617%, 48.480225%)" offset="0.601563"/><stop stop-opacity="1" stop-color="rgb(29.907227%, 74.884033%, 48.200989%)" offset="0.609375"/><stop stop-opacity="1" stop-color="rgb(30.291748%, 75.085449%, 47.923279%)" offset="0.617188"/><stop stop-opacity="1" stop-color="rgb(30.677795%, 75.288391%, 47.644043%)" offset="0.625"/><stop stop-opacity="1" stop-color="rgb(31.063843%, 75.489807%, 47.366333%)" offset="0.632813"/><stop stop-opacity="1" stop-color="rgb(31.44989%, 75.692749%, 47.087097%)" offset="0.640625"/><stop stop-opacity="1" stop-color="rgb(31.835938%, 75.894165%, 46.807861%)" offset="0.648438"/><stop stop-opacity="1" stop-color="rgb(32.221985%, 76.097107%, 46.530151%)" offset="0.65625"/><stop stop-opacity="1" stop-color="rgb(32.608032%, 76.298523%, 46.250916%)" offset="0.664062"/><stop stop-opacity="1" stop-color="rgb(32.99408%, 76.501465%, 45.97168%)" offset="0.671875"/><stop stop-opacity="1" stop-color="rgb(33.380127%, 76.702881%, 45.69397%)" offset="0.679688"/><stop stop-opacity="1" stop-color="rgb(33.766174%, 76.905823%, 45.414734%)" offset="0.6875"/><stop stop-opacity="1" stop-color="rgb(34.152222%, 77.107239%, 45.135498%)" offset="0.695312"/><stop stop-opacity="1" stop-color="rgb(34.536743%, 77.310181%, 44.857788%)" offset="0.703125"/><stop stop-opacity="1" stop-color="rgb(34.922791%, 77.511597%, 44.578552%)" offset="0.710938"/><stop stop-opacity="1" stop-color="rgb(35.308838%, 77.714539%, 44.300842%)" offset="0.71875"/><stop stop-opacity="1" stop-color="rgb(35.694885%, 77.915955%, 44.021606%)" offset="0.726562"/><stop stop-opacity="1" stop-color="rgb(36.080933%, 78.118896%, 43.742371%)" offset="0.734375"/><stop stop-opacity="1" stop-color="rgb(36.46698%, 78.320312%, 43.464661%)" offset="0.742188"/><stop stop-opacity="1" stop-color="rgb(36.853027%, 78.521729%, 43.185425%)" offset="0.75"/><stop stop-opacity="1" stop-color="rgb(37.239075%, 78.72467%, 42.906189%)" offset="0.757812"/><stop stop-opacity="1" stop-color="rgb(37.625122%, 78.926086%, 42.628479%)" offset="0.765625"/><stop stop-opacity="1" stop-color="rgb(38.011169%, 79.129028%, 42.349243%)" offset="0.773438"/><stop stop-opacity="1" stop-color="rgb(38.397217%, 79.330444%, 42.071533%)" offset="0.78125"/><stop stop-opacity="1" stop-color="rgb(38.781738%, 79.533386%, 41.792297%)" offset="0.789062"/><stop stop-opacity="1" stop-color="rgb(39.167786%, 79.734802%, 41.513062%)" offset="0.796875"/><stop stop-opacity="1" stop-color="rgb(39.553833%, 79.937744%, 41.235352%)" offset="0.804688"/><stop stop-opacity="1" stop-color="rgb(39.93988%, 80.13916%, 40.956116%)" offset="0.8125"/><stop stop-opacity="1" stop-color="rgb(40.325928%, 80.342102%, 40.67688%)" offset="0.820312"/><stop stop-opacity="1" stop-color="rgb(40.711975%, 80.543518%, 40.39917%)" offset="0.828125"/><stop stop-opacity="1" stop-color="rgb(41.098022%, 80.74646%, 40.119934%)" offset="0.835938"/><stop stop-opacity="1" stop-color="rgb(41.48407%, 80.947876%, 39.840698%)" offset="0.84375"/><stop stop-opacity="1" stop-color="rgb(41.870117%, 81.150818%, 39.562988%)" offset="0.851562"/><stop stop-opacity="1" stop-color="rgb(42.256165%, 81.352234%, 39.283752%)" offset="0.859375"/><stop stop-opacity="1" stop-color="rgb(42.642212%, 81.555176%, 39.006042%)" offset="0.867188"/><stop stop-opacity="1" stop-color="rgb(43.026733%, 81.756592%, 38.726807%)" offset="0.875"/><stop stop-opacity="1" stop-color="rgb(43.412781%, 81.958008%, 38.447571%)" offset="0.882812"/><stop stop-opacity="1" stop-color="rgb(43.798828%, 82.16095%, 38.169861%)" offset="0.890625"/><stop stop-opacity="1" stop-color="rgb(44.184875%, 82.362366%, 37.890625%)" offset="0.898438"/><stop stop-opacity="1" stop-color="rgb(44.570923%, 82.565308%, 37.611389%)" offset="0.90625"/><stop stop-opacity="1" stop-color="rgb(44.95697%, 82.766724%, 37.333679%)" offset="0.914062"/><stop stop-opacity="1" stop-color="rgb(45.343018%, 82.969666%, 37.054443%)" offset="0.921875"/><stop stop-opacity="1" stop-color="rgb(45.729065%, 83.171082%, 36.776733%)" offset="0.929688"/><stop stop-opacity="1" stop-color="rgb(46.115112%, 83.374023%, 36.497498%)" offset="0.9375"/><stop stop-opacity="1" stop-color="rgb(46.50116%, 83.575439%, 36.218262%)" offset="0.945312"/><stop stop-opacity="1" stop-color="rgb(46.887207%, 83.778381%, 35.940552%)" offset="0.953125"/><stop stop-opacity="1" stop-color="rgb(47.271729%, 83.979797%, 35.661316%)" offset="0.960938"/><stop stop-opacity="1" stop-color="rgb(47.657776%, 84.182739%, 35.38208%)" offset="0.96875"/><stop stop-opacity="1" stop-color="rgb(48.043823%, 84.384155%, 35.10437%)" offset="0.976562"/><stop stop-opacity="1" stop-color="rgb(48.429871%, 84.587097%, 34.825134%)" offset="0.984375"/><stop stop-opacity="1" stop-color="rgb(48.815918%, 84.788513%, 34.545898%)" offset="0.992187"/><stop stop-opacity="1" stop-color="rgb(49.201965%, 84.989929%, 34.268188%)" offset="1"/></linearGradient><clipPath id="3949d39d1b"><path d="M 332.3125 250.878906 L 503.875 250.878906 L 503.875 422.867188 L 332.3125 422.867188 Z M 332.3125 250.878906 " clip-rule="nonzero"/></clipPath><clipPath id="8399d17f9e"><path d="M 332.3125 422.046875 L 503.875 422.046875 L 503.875 593.613281 L 332.3125 593.613281 Z M 332.3125 422.046875 " clip-rule="nonzero"/></clipPath><clipPath id="898438efe3"><path d="M 161.144531 422.046875 L 333 422.046875 L 333 593.613281 L 161.144531 593.613281 Z M 161.144531 422.046875 " clip-rule="nonzero"/></clipPath><clipPath id="7649ffffb6"><path d="M 161.144531 250.878906 L 333 250.878906 L 333 423 L 161.144531 423 Z M 161.144531 250.878906 " clip-rule="nonzero"/></clipPath><clipPath id="3c538e06de"><path d="M 419.46875 231 L 503 231 L 503 314.527344 L 419.46875 314.527344 Z M 419.46875 231 " clip-rule="nonzero"/></clipPath><clipPath id="3f8c7d668b"><path d="M 419.46875 186 L 547 186 L 547 314.527344 L 419.46875 314.527344 Z M 419.46875 186 " clip-rule="nonzero"/></clipPath><clipPath id="38843488f7"><path d="M 419.46875 145.027344 L 588.96875 145.027344 L 588.96875 314.527344 L 419.46875 314.527344 Z M 419.46875 145.027344 " clip-rule="nonzero"/></clipPath></defs><g clip-path="url(#95e406fc15)"><g clip-path="url(#d4b1988f0f)"><path stroke-linecap="butt" transform="matrix(0.75, 0, 0, 0.75, 17.10598, 17.107812)" fill="none" stroke-linejoin="miter" d="M 276.666016 0.00208373 L 677.603561 0.00208373 C 750.978569 0.00208373 821.348369 29.153129 873.233791 81.033343 C 925.119214 132.918765 954.265051 203.288565 954.265051 276.668782 L 954.265051 677.710493 C 954.265051 751.085502 925.119214 821.455301 873.233791 873.340724 C 821.348369 925.226146 750.978569 954.371983 677.603561 954.371983 L 276.666016 954.371983 C 203.285799 954.371983 132.916 925.226146 81.030577 873.340724 C 29.150363 821.455301 -0.000681955 751.085502 -0.000681955 677.710493 L -0.000681955 276.668782 C -0.000681955 203.288565 29.150363 132.918765 81.030577 81.033343 C 132.916 29.153129 203.285799 0.00208373 276.666016 0.00208373 Z M 276.666016 0.00208373 " stroke="url(#d370a93008)" stroke-width="140" stroke-miterlimit="4"/></g></g><g clip-path="url(#3949d39d1b)"><path fill="#f0a321" d="M 347.738281 282.816406 C 360.222656 282.816406 370.378906 292.972656 370.378906 305.457031 L 370.378906 384.375 L 471.9375 384.375 L 471.9375 422.242188 L 503.875 422.242188 L 503.875 352.433594 L 402.320312 352.433594 L 402.320312 305.457031 C 402.320312 275.3125 377.882812 250.875 347.738281 250.875 L 332.511719 250.875 L 332.511719 282.816406 L 347.738281 282.816406 " fill-opacity="1" fill-rule="nonzero"/></g><g clip-path="url(#8399d17f9e)"><path fill="#2ba8e0" d="M 471.9375 422.242188 L 471.9375 437.472656 C 471.9375 449.957031 461.78125 460.113281 449.296875 460.113281 L 370.378906 460.113281 L 370.378906 561.671875 L 332.511719 561.671875 L 332.511719 593.613281 L 402.320312 593.613281 L 402.320312 492.054688 L 449.296875 492.054688 C 479.441406 492.054688 503.875 467.617188 503.875 437.472656 L 503.875 422.242188 L 471.9375 422.242188 " fill-opacity="1" fill-rule="nonzero"/></g><g clip-path="url(#898438efe3)"><path fill="#8bc342" d="M 317.28125 561.671875 C 304.796875 561.671875 294.640625 551.515625 294.640625 539.03125 L 294.640625 460.113281 L 193.082031 460.113281 L 193.082031 422.242188 L 161.144531 422.242188 L 161.144531 492.054688 L 262.703125 492.054688 L 262.703125 539.03125 C 262.703125 569.175781 287.136719 593.613281 317.28125 593.613281 L 332.511719 593.613281 L 332.511719 561.671875 L 317.28125 561.671875 " fill-opacity="1" fill-rule="nonzero"/></g><g clip-path="url(#7649ffffb6)"><path fill="#e71f69" d="M 193.082031 407.015625 C 193.082031 394.53125 203.242188 384.375 215.722656 384.375 L 294.640625 384.375 L 294.640625 282.816406 L 332.511719 282.816406 L 332.511719 250.875 L 262.703125 250.875 L 262.703125 352.433594 L 215.722656 352.433594 C 185.578125 352.433594 161.144531 376.871094 161.144531 407.015625 L 161.144531 422.242188 L 193.082031 422.242188 L 193.082031 407.015625 " fill-opacity="1" fill-rule="nonzero"/></g><g clip-path="url(#3c538e06de)"><path fill="#2ba8e0" d="M 478.148438 255.652344 C 463.628906 241.132812 445.015625 233.128906 425.980469 231.640625 C 422.46875 231.363281 419.464844 234.144531 419.464844 237.667969 C 419.464844 240.816406 421.882812 243.429688 425.023438 243.675781 C 441.285156 244.941406 457.195312 251.777344 469.609375 264.191406 C 482.015625 276.597656 488.851562 292.507812 490.117188 308.769531 C 490.363281 311.90625 492.980469 314.328125 496.128906 314.328125 C 499.652344 314.328125 502.429688 311.324219 502.15625 307.8125 C 500.671875 288.785156 492.667969 270.171875 478.148438 255.652344 " fill-opacity="1" fill-rule="nonzero"/></g><g clip-path="url(#3f8c7d668b)"><path fill="#2ba8e0" d="M 509.71875 224.082031 C 486.460938 200.820312 456.386719 188.429688 425.859375 186.914062 C 422.390625 186.742188 419.464844 189.46875 419.464844 192.941406 L 419.464844 192.949219 C 419.464844 196.1875 422.023438 198.8125 425.253906 198.972656 C 452.894531 200.347656 480.121094 211.5625 501.179688 232.621094 C 522.238281 253.679688 533.453125 280.90625 534.820312 308.535156 C 534.980469 311.769531 537.609375 314.328125 540.847656 314.328125 L 540.851562 314.328125 C 544.324219 314.328125 547.054688 311.40625 546.878906 307.933594 C 545.371094 277.414062 532.980469 247.34375 509.71875 224.082031 " fill-opacity="1" fill-rule="nonzero"/></g><g clip-path="url(#38843488f7)"><path fill="#2ba8e0" d="M 539.226562 194.578125 C 507.789062 163.144531 466.96875 146.675781 425.695312 145.164062 C 422.289062 145.039062 419.464844 147.792969 419.464844 151.203125 L 419.464844 151.207031 C 419.464844 154.464844 422.054688 157.109375 425.308594 157.230469 C 463.621094 158.648438 501.511719 173.941406 530.683594 203.117188 C 559.859375 232.289062 575.152344 270.179688 576.5625 308.484375 C 576.683594 311.738281 579.332031 314.328125 582.589844 314.328125 C 586 314.328125 588.757812 311.507812 588.632812 308.101562 C 587.125 266.832031 570.65625 226.011719 539.226562 194.578125 " fill-opacity="1" fill-rule="nonzero"/></g></svg>